<svg width="23" height="22" viewBox="0 0 23 22" fill="none" xmlns="http://www.w3.org/2000/svg">
<path d="M11.5 2.6716C10.803 2.6716 10.1132 2.40988 9.68637 1.85891L9.23424 1.27529C8.62172 0.484652 7.51933 0.268023 6.65318 0.768094L5.34684 1.52231C4.48069 2.02238 4.1171 3.0854 4.49556 4.01117L4.77481 4.69428C5.0387 5.33979 4.92168 6.06478 4.5722 6.66825C4.22303 7.27119 3.65039 7.74201 2.96003 7.83615L2.22977 7.93573C1.2388 8.07086 0.5 8.91725 0.5 9.91739V11.4258C0.5 12.426 1.2388 13.2724 2.22977 13.4075L2.96006 13.5071C3.6504 13.6012 4.22303 14.072 4.57219 14.6749C4.92166 15.2784 5.03867 16.0034 4.77479 16.6489L4.49554 17.332C4.11708 18.2577 4.48067 19.3208 5.34682 19.8208L6.65316 20.575C7.51931 21.0751 8.6217 20.8585 9.23422 20.0678L9.68626 19.4843C10.1131 18.9333 10.803 18.6716 11.5 18.6716C12.1971 18.6716 12.887 18.9334 13.3139 19.4844L13.7658 20.0677C14.3783 20.8583 15.4807 21.0749 16.3468 20.5749L17.6532 19.8207C18.5193 19.3206 18.8829 18.2576 18.5045 17.3318L18.2252 16.6487C17.9614 16.0033 18.0784 15.2783 18.4278 14.6749C18.777 14.072 19.3496 13.6012 20.0399 13.5071L20.7702 13.4075C21.7612 13.2724 22.5 12.426 22.5 11.4258V9.91739C22.5 8.91725 21.7612 8.07086 20.7702 7.93573L20.0399 7.83615C19.3496 7.74201 18.777 7.2712 18.4278 6.66828C18.0784 6.06483 17.9613 5.33987 18.2252 4.69438L18.5044 4.01134C18.8829 3.08557 18.5193 2.02256 17.6532 1.52249L16.3468 0.768269C15.4807 0.268199 14.3783 0.484826 13.7658 1.27547L13.3138 1.85882C12.8869 2.40986 12.197 2.6716 11.5 2.6716Z" stroke="#B2B2B2" stroke-linecap="round" stroke-linejoin="round"/>
<path d="M14.5 10.6716C14.5 12.3284 13.1569 13.6716 11.5 13.6716C9.84315 13.6716 8.5 12.3284 8.5 10.6716C8.5 9.01472 9.84315 7.67157 11.5 7.67157C13.1569 7.67157 14.5 9.01472 14.5 10.6716Z" stroke="#B2B2B2" stroke-linecap="round" stroke-linejoin="round"/>
</svg>
